<?xml version="1.0" encoding="UTF-8"?>
<svg xmlns="http://www.w3.org/2000/svg" xmlns:xlink="http://www.w3.org/1999/xlink" width="2183px" height="2183px" viewBox="0 0 2183 2183" version="1.1">
<g id="surface1">
<path style=" stroke:none;fill-rule:nonzero;fill:rgb(91.372549%,79.215686%,19.607843%);fill-opacity:1;" d="M 182.792969 1954.332031 L 0 3.644531 L 2183 7.566406 L 1989.714844 1954.332031 L 1099.738281 2179.355469 Z M 182.792969 1954.332031 "/>
<path style=" stroke:none;fill-rule:nonzero;fill:rgb(100%,87.058824%,14.509804%);fill-opacity:1;" d="M 1099.738281 1990.964844 L 1099.738281 189.421875 L 1998.710938 192.035156 L 1838.402344 1803.863281 Z M 1099.738281 1990.964844 "/>
<path style=" stroke:none;fill-rule:nonzero;fill:rgb(100%,100%,100%);fill-opacity:1;" d="M 1003.476562 403.332031 L 765.808594 403.332031 L 765.808594 1602.390625 L 580.960938 1571.644531 L 580.960938 1410.234375 L 360.898438 1379.488281 L 360.898438 1740.742188 L 1003.476562 1886.785156 Z M 1181.761719 403.332031 L 1839.707031 403.332031 L 1795.695312 633.152344 L 1432.929688 633.152344 L 1432.929688 1010.285156 L 1795.695312 1010.285156 L 1751.679688 1771.488281 L 1181.761719 1886.785156 L 1181.761719 1648.507812 L 1566.832031 1533.214844 L 1589.066406 1218.078125 L 1181.761719 1269.574219 Z M 1181.761719 403.332031 "/>
</g>
</svg>
